HIERARCHY
ROOT Hips
{
	OFFSET 0.000000 0.000000 0.000000 
	CHANNELS 6 Xposition Yposition Zposition Yrotation Zrotation Xrotation 
	JOINT Lumbar
	{
		OFFSET 0.000000 0.000000 0.000000 
		CHANNELS 3 Zrotation Xrotation Yrotation
		JOINT Neck
		{
			OFFSET 0.000000 0.445665 0.000000 
			CHANNELS 3 Zrotation Xrotation Yrotation
			End Site
			{
				OFFSET 0.000000 0.227535 0.000000 
			}
		}
		JOINT RightShoulder
		{
			OFFSET 0.019635 0.377685 0.194865 
			CHANNELS 3 Zrotation Xrotation Yrotation
			JOINT RightElbow
			{
				OFFSET 0.000000 -0.243375 0.000000 
				CHANNELS 2 Zrotation Yrotation
				JOINT RightWrist
				{
					OFFSET 0.000000 -0.264825 0.000000 
					CHANNELS 2 Zrotation Xrotation
					End Site
					{
						OFFSET 0.006600 -0.176220 0.000990 
					}
				}
			}
		}
		JOINT LeftShoulder
		{
			OFFSET 0.019635 0.377685 -0.194865 
			CHANNELS 3 Zrotation Xrotation Yrotation
			JOINT LeftElbow
			{
				OFFSET 0.000000 -0.243375 0.000000 
				CHANNELS 2 Zrotation Yrotation
				JOINT LeftWrist
				{
					OFFSET 0.000000 -0.264825 0.000000 
					CHANNELS 2 Zrotation Xrotation
					End Site
					{
						OFFSET 0.006600 -0.176220 -0.000990 
					}
				}
			}
		}
	}
	JOINT RightHip
	{
		OFFSET 0.052140 -0.069960 0.075570 
		CHANNELS 3 Zrotation Xrotation Yrotation
		JOINT RightKnee
		{
			OFFSET 0.000000 -0.402270 0.000000 
			CHANNELS 1 Zrotation
			JOINT RightAnkle
			{
				OFFSET 0.000000 -0.404085 0.000000 
				CHANNELS 3 Zrotation Xrotation Yrotation
				End Site
				{
					OFFSET 0.204105 -0.089430 0.008415 
				}
			}
		}
	}
	JOINT LeftHip
	{
		OFFSET 0.052140 -0.069960 -0.075570 
		CHANNELS 3 Zrotation Xrotation Yrotation
		JOINT LeftKnee
		{
			OFFSET 0.000000 -0.402270 0.000000 
			CHANNELS 1 Zrotation
			JOINT LeftAnkle
			{
				OFFSET 0.000000 -0.404085 0.000000 
				CHANNELS 3 Zrotation Xrotation Yrotation
				End Site
				{
					OFFSET 0.204105 -0.089430 -0.008415 
				}
			}
		}
	}
}
MOTION
Frames: 32
Frame Time: 0.02
0 0.95578 0 175.95934 0 -4.30307 4.44442 4.97936 -1.90716 -23.73195 8.4569 6.47182 -12.54028 -77.26049 -90.01162 20.59285 48.17505 -25.96876 1.28711 19.97177 62.02897 67.8233 21.39346 -79.11916 -19.86867 3.43608 -3.43659 6.93801 -3.3889 -6.70606 1.40785 -4.86654 -9.45939 -5.45315 2.68758 9.2955 -6.02398 7.75008 7.48193 11.05944
-0.00023 0.95575 -0.00021 175.99274 0 -4.30939 4.49471 4.90357 -1.87468 -23.79372 8.42836 6.47394 -12.07083 -77.21411 -90.01174 20.6712 47.87321 -25.62752 1.42547 20.33818 62.1147 67.38262 21.53419 -79.41745 -19.93293 3.45887 -3.4583 6.95654 -3.39914 -6.70028 1.41946 -4.85793 -9.46602 -5.47581 2.70644 9.28793 -6.00299 7.75823 7.48206 11.04158
-0.00047 0.95571 -0.00041 176.02583 0 -4.31571 4.54494 4.82815 -1.84234 -23.85564 8.39953 6.47606 -11.60204 -77.16774 -90.01153 20.7493 47.57438 -25.287 1.563 20.70263 62.19988 66.94442 21.67409 -79.71406 -19.99691 3.48161 -3.47991 6.97499 -3.40922 -6.69453 1.43101 -4.84951 -9.47263 -5.49835 2.7252 9.28038 -5.98219 7.7664 7.48224 11.02402
-0.0007 0.95568 -0.00062 176.0579 0 -4.32201 4.59506 4.75356 -1.81093 -23.9189 8.37066 6.47918 -11.13564 -77.12359 -90.01165 20.82699 47.28052 -24.94795 1.69909 21.06272 62.28265 66.51303 21.81209 -80.00319 -20.05944 3.50406 -3.50127 6.99326 -3.4185 -6.6889 1.44238 -4.84186 -9.47948 -5.52057 2.74371 9.27297 -5.96203 7.77464 7.48259 11.00736
-0.00094 0.95564 -0.00083 176.09525 0 -4.32834 4.64532 4.67465 -1.77537 -23.97524 8.3437 6.47819 -10.66181 -77.0709 -90.0121 20.90665 46.95516 -24.60345 1.84345 21.44579 62.37689 66.047 21.96018 -80.3273 -20.12837 3.52766 -3.52388 7.01245 -3.4317 -6.68267 1.4546 -4.83024 -9.48535 -5.54439 2.76346 9.26496 -5.93855 7.7824 7.48196 10.9858
-0.00117 0.95561 -0.00102 176.12145 0 -4.33464 4.69554 4.60489 -1.74809 -24.04604 8.31155 6.48509 -10.20059 -77.03415 -90.01042 20.98221 46.7003 -24.26923 1.96971 21.77994 62.44767 65.65374 22.08676 -80.58029 -20.18459 3.54908 -3.54389 7.0297 -3.43679 -6.67769 1.46508 -4.82694 -9.49307 -5.56487 2.78062 9.25813 -5.92208 7.79127 7.48348 10.97469
-0.00136 0.95558 -0.00113 176.11605 0 -4.34074 4.74452 4.5599 -1.74829 -24.16093 8.27312 6.52125 -9.79224 -77.05914 -90.01337 21.0468 46.61356 -23.96799 2.05107 21.98193 62.44559 65.46599 22.15551 -80.61378 -20.20131 3.56275 -3.5563 7.04158 -3.41714 -6.67649 1.47029 -4.8483 -9.50822 -5.57564 2.79052 9.25541 -5.92577 7.80281 7.49058 10.99249
-0.00155 0.95556 -0.00122 176.09957 0 -4.34683 4.79368 4.52419 -1.75595 -24.28949 8.22768 6.56377 -9.39258 -77.09626 -90.01143 21.10725 46.60481 -23.67557 2.113 22.13369 62.42117 65.35067 22.20233 -80.58227 -20.20789 3.57485 -3.56611 7.0515 -3.38967 -6.67653 1.47382 -4.87779 -9.52489 -5.58307 2.79785 9.25373 -5.93647 7.81556 7.49991 11.02081
-0.00174 0.95553 -0.00131 176.08863 0 -4.35303 4.8436 4.48451 -1.7573 -24.40958 8.18045 6.5989 -8.977 -77.11728 -90.00591 21.16945 46.57502 -23.37621 2.18095 22.30746 62.41241 65.19899 22.25825 -80.5924 -20.21964 3.58842 -3.57747 7.06231 -3.3673 -6.6757 1.47841 -4.90244 -9.53933 -5.59242 2.80645 9.25104 -5.94341 7.82805 7.50848 11.04433
-0.00193 0.9555 -0.00141 176.07542 0 -4.35883 4.89016 4.44378 -1.77121 -24.54037 8.15521 6.6541 -8.6131 -77.18601 -90.02819 21.23225 46.47619 -23.09078 2.26195 22.48684 62.38098 65.06185 22.3178 -80.54122 -20.22142 3.59756 -3.5875 7.07313 -3.33855 -6.67597 1.48177 -4.93183 -9.56008 -5.60032 2.8146 9.25062 -5.95254 7.83933 7.51603 11.06805
-0.00212 0.95547 -0.0015 176.0645 0 -4.36542 4.94353 4.40743 -1.76044 -24.65064 8.08128 6.66765 -8.14228 -77.15446 -89.98726 21.29273 46.55009 -22.77655 2.30963 22.63983 62.39075 64.91169 22.36459 -80.61516 -20.25107 3.61712 -3.59941 7.08344 -3.32105 -6.67451 1.48726 -4.95338 -9.56829 -5.61013 2.82309 9.2457 -5.95909 7.85339 7.52618 11.09368
-0.00237 0.95541 -0.00158 176.06092 0 -4.37428 5.01769 4.38119 -1.68218 -24.71442 7.88512 6.57624 -7.3848 -76.87499 -89.80881 21.34827 46.99521 -22.3976 2.28225 22.75694 62.52422 64.7081 22.38077 -80.939 -20.27844 3.65215 -3.6193 7.09301 -3.33805 -6.66561 1.49951 -4.95032 -9.53929 -5.62871 2.83285 9.22836 -5.954 7.87526 7.54335 11.1234
-0.00263 0.95535 -0.00165 176.06027 0 -4.38389 5.09832 4.35902 -1.57833 -24.75508 7.63836 6.44058 -6.51724 -76.48804 -89.56054 21.40137 47.62921 -21.98688 2.21913 22.84525 62.69805 64.48963 22.3844 -81.41069 -20.3491 3.70007 -3.64075 7.10205 -3.36633 -6.65534 1.51395 -4.93927 -9.49805 -5.64885 2.84304 9.20647 -5.94654 7.89987 7.56299 11.15439
-0.00288 0.95529 -0.00173 176.05952 0 -4.39309 5.17472 4.33473 -1.48456 -24.7968 7.40769 6.31748 -5.69326 -76.12958 -89.32034 21.45551 48.23163 -21.57872 2.16513 22.92979 62.85173 64.27682 22.39505 -81.88931 -20.45403 3.75135 -3.66008 7.11122 -3.38848 -6.6473 1.52703 -4.93249 -9.46388 -5.66648 2.85326 9.18637 -5.94211 7.9229 7.58121 11.1839
-0.00317 0.95523 -0.00181 176.05355 0 -4.4026 5.25664 4.31175 -1.39764 -24.87674 7.20539 6.22625 -4.89747 -75.85821 -89.17856 21.51046 48.60138 -21.2182 2.14299 23.0812 63.01646 64.06798 22.40187 -82.0575 -20.33242 3.76457 -3.68532 7.1209 -3.41468 -6.63265 1.54132 -4.92326 -9.42338 -5.6915 2.86259 9.16712 -5.92998 7.94719 7.6007 11.21768
-0.00336 0.95518 -0.00188 176.05885 0 -4.41159 5.3285 4.28708 -1.29023 -24.8741 6.93276 6.05833 -4.01585 -75.37883 -88.81688 21.56236 49.50751 -20.75431 2.04315 23.09036 63.16279 63.85041 22.41087 -82.90224 -20.69111 3.85901 -3.6986 7.1293 -3.43513 -6.63125 1.55394 -4.91718 -9.39314 -5.70167 2.87371 9.14546 -5.93285 7.9697 7.61818 11.24259
-0.00331 0.95517 -0.00192 176.09846 0 -4.41957 5.37171 4.25514 -1.13281 -24.62558 6.47265 5.68714 -2.93219 -74.3591 -87.85222 21.61336 51.7751 -19.98231 1.76494 22.68632 63.29262 63.57856 22.45492 -85.62818 -22.37679 4.18426 -3.67901 7.1352 -3.43764 -6.66826 1.5588 -4.92132 -9.39428 -5.66933 2.89138 9.11433 -5.98104 7.98478 7.62876 11.24379
-0.00317 0.95519 -0.00194 176.14861 0 -4.42688 5.40439 4.22166 -0.95559 -24.29893 5.94477 5.24076 -1.76498 -73.13225 -86.6718 21.65986 54.58519 -19.11294 1.40528 22.14551 63.39371 63.30491 22.49648 -89.01877 -24.53801 4.58903 -3.64723 7.13964 -3.43385 -6.71836 1.5624 -4.92892 -9.40617 -5.62219 2.91051 9.08159 -6.04379 7.9983 7.63735 11.23581
-0.00305 0.95518 -0.00196 176.19148 0 -4.43412 5.44144 4.18989 -0.78717 -24.02352 5.45149 4.83025 -0.63 -71.99506 -85.59775 21.70418 57.19985 -18.30812 1.06439 21.68558 63.48003 63.05323 22.52269 -92.07605 -26.47956 4.95101 -3.62071 7.14417 -3.43253 -6.76148 1.56828 -4.9352 -9.4131 -5.58262 2.92786 9.05222 -6.0976 8.01376 7.64733 11.23118
-0.00299 0.95521 -0.00201 176.24508 0 -4.44298 5.48062 4.15389 -0.61858 -23.68139 4.93978 4.41079 0.4869 -70.8729 -84.48332 21.7672 59.62216 -17.41674 0.79715 21.14555 63.68818 62.70961 22.61954 -95.27977 -28.45514 5.34142 -3.59552 7.15121 -3.43334 -6.8089 1.56699 -4.94021 -9.41989 -5.53964 2.94999 9.01178 -6.16098 8.02417 7.65536 11.22982
-0.0028 0.95518 -0.00199 176.27866 0 -4.44827 5.5126 4.12641 -0.44613 -23.45935 4.45179 3.99299 1.65699 -69.67178 -83.40621 21.78902 62.55043 -16.68263 0.36029 20.74029 63.63152 62.55995 22.56696 -98.32262 -30.45025 5.69144 -3.56455 7.15258 -3.42799 -6.8505 1.58033 -4.9487 -9.42971 -5.50007 2.96241 8.99379 -6.20809 8.04465 7.66691 11.21976
-0.00228 0.95498 -0.00177 176.25568 0 -4.44422 5.52851 4.12161 -0.26716 -23.5931 4.0396 3.59601 2.97684 -68.30238 -82.45506 21.70848 66.92337 -16.40931 -0.54731 20.74021 62.88116 62.92315 22.11822 -100.85988 -32.57244 5.90976 -3.52132 7.13956 -3.408 -6.87293 1.63416 -4.96679 -9.4452 -5.47475 2.9486 9.04065 -6.20536 8.09363 7.6889 11.1852
-0.00163 0.95473 -0.00147 176.21206 0 -4.43653 5.53716 4.1256 -0.0856 -23.84921 3.65506 3.20413 4.3418 -66.86126 -81.55495 21.58462 71.75251 -16.2971 -1.61812 20.88036 61.85891 63.48579 21.51635 -103.19343 -34.66351 6.08495 -3.47252 7.12074 -3.3819 -6.88911 1.70278 -4.98819 -9.46348 -5.4531 2.92481 9.10964 -6.18606 8.1527 7.71443 11.14266
-0.00104 0.9545 -0.0012 176.17685 0 -4.43028 5.54841 4.12639 0.09461 -24.04653 3.26222 2.81123 5.67108 -65.4543 -80.65127 21.474 76.25319 -16.10977 -2.59989 20.95716 60.94151 63.97267 20.97414 -105.5521 -36.64276 6.28 -3.42586 7.10399 -3.35794 -6.90806 1.76478 -5.00751 -9.48057 -5.42903 2.90497 9.16697 -6.17521 8.20696 7.73817 11.10559
-0.00047 0.95427 -0.00096 176.14561 0 -4.42497 5.5627 4.12392 0.27766 -24.25602 2.84893 2.40927 7.07006 -64.03396 -79.65671 21.39089 81.28292 -15.92783 -3.64877 21.02901 60.10405 64.39758 20.47344 -108.21564 -39.16532 6.4759 -3.38063 7.08957 -3.33621 -6.92755 1.82638 -5.0292 -9.49756 -5.4078 2.88762 9.23128 -6.16087 8.2622 7.76262 11.06057
0.00018 0.95403 -0.00065 176.10171 0 -4.4168 5.56852 4.13015 0.4534 -24.46837 2.48576 2.02954 8.33016 -62.62648 -78.86694 21.23968 85.31376 -15.77322 -4.59372 21.14448 59.03348 64.99781 19.85037 -110.19117 -40.54905 6.65982 -3.33104 7.06895 -3.30878 -6.94454 1.89227 -5.04692 -9.51544 -5.38147 2.86273 9.28599 -6.14983 8.31772 7.78644 11.03015
0.00101 0.95376 -0.00017 176.0224 0 -4.40194 5.55726 4.15976 0.62331 -24.67472 2.25439 1.70026 9.223 -61.27863 -78.62594 20.91566 86.45595 -15.66373 -5.22639 21.36171 57.40574 66.04014 18.92376 -110.27398 -38.73643 6.81106 -3.2726 7.03254 -3.26439 -6.95346 1.96687 -5.05095 -9.53362 -5.34251 2.81901 9.31162 -6.15038 8.3723 7.80786 11.04359
0.00191 0.95347 0.00037 175.93215 0 -4.38427 5.53686 4.19742 0.78308 -24.87687 2.07312 1.39521 9.96873 -59.94575 -78.59059 20.52364 86.57817 -15.57505 -5.74535 21.61563 55.54888 67.24846 17.88024 -109.67349 -35.78695 6.95288 -3.20971 6.99011 -3.2151 -6.96049 2.04517 -5.0512 -9.55279 -5.29796 2.76816 9.3262 -6.15496 8.42666 7.8285 11.07173
0.00279 0.9532 0.00088 175.85036 0 -4.3677 5.51782 4.2306 0.93726 -25.07112 1.86877 1.08603 10.76376 -58.6031 -78.46565 20.15985 87.17652 -15.47131 -6.30676 21.84339 53.78436 68.37928 16.89183 -109.41367 -33.39503 7.10572 -3.1477 6.95046 -3.16975 -6.9701 2.12146 -5.05446 -9.57239 -5.25448 2.72086 9.3441 -6.15873 8.48065 7.84941 11.0922
0.00363 0.95291 0.00139 175.75274 0 -4.35178 5.51061 4.26811 1.13367 -25.31199 1.66542 0.74859 11.63552 -57.27147 -78.3283 19.80626 87.73671 -15.39652 -6.9142 22.11658 52.0614 69.53526 15.88822 -109.03034 -30.83163 7.23009 -3.09025 6.91036 -3.11655 -6.97229 2.19966 -5.05247 -9.5884 -5.21724 2.67182 9.37036 -6.1579 8.53705 7.87086 11.11667
0.00456 0.95264 0.00191 175.68627 0 -4.33385 5.47628 4.2977 1.24082 -25.45194 1.47309 0.47488 12.31071 -55.92 -78.26213 19.41531 88.1297 -15.26461 -7.39496 22.30133 50.19939 70.66376 14.89236 -108.73151 -28.35323 7.41029 -3.0224 6.86992 -3.07912 -6.98947 2.27455 -5.06039 -9.61207 -5.16571 2.62495 9.3758 -6.16748 8.58816 7.89088 11.13628
0.00571 0.95245 0.00243 175.7037 0 -4.31149 5.37304 4.30949 1.09412 -25.32483 1.28503 0.37895 12.48946 -54.52199 -78.36719 18.94241 88.29137 -14.96552 -7.56722 22.2394 48.02554 71.77379 13.93153 -108.94306 -26.40945 7.76094 -2.92628 6.82938 -3.08169 -7.04941 2.33939 -5.09725 -9.65663 -5.07543 2.58506 9.33099 -6.20782 8.62543 7.90764 11.13992
